# xmcd CD database file
#
# Track frame offsets:
#	150
#	7819
#	28244
#	42978
#	64223
#	88705
#	106159
#
# Disc length: 1619 seconds
#
# Revision: 0
# Processed by: cddbd v1.5PL3 Copyright (c) Steve Scherf et al.
# Submitted via: CDex 1.51
#
DISCID=50065107
DTITLE=The Jizz Monks From Maximam Love - Thrash Jazz Assassin
DYEAR=1900
DGENRE=Rock
TTITLE0=Screaming Jaguar Returns
TTITLE1=Just One Soul
TTITLE2=What's The Misery?
TTITLE3=Down Man 71
TTITLE4=Cosmic Soul Hotel
TTITLE5=Leave
TTITLE6=力抜く日々
EXTD=
EXTT0=
EXTT1=
EXTT2=
EXTT3=
EXTT4=
EXTT5=
EXTT6=
PLAYORDER=
